<svg width="595" height="595" viewBox="0 0 595 595" fill="none" xmlns="http://www.w3.org/2000/svg">
<rect width="595" height="595" fill="#1E1E1E"/>
<g clip-path="url(#clip0_0_1)">
<path d="M476 0H119C53.2781 0 0 53.2781 0 119V476C0 541.722 53.2781 595 119 595H476C541.722 595 595 541.722 595 476V119C595 53.2781 541.722 0 476 0Z" fill="white"/>
<path d="M476 0H119C53.2781 0 0 53.2781 0 119V476C0 541.722 53.2781 595 119 595H476C541.722 595 595 541.722 595 476V119C595 53.2781 541.722 0 476 0Z" fill="#003049"/>
<path d="M357 357H238C229.785 357 223.125 363.66 223.125 371.875V490.875C223.125 499.09 229.785 505.75 238 505.75H357C365.215 505.75 371.875 499.09 371.875 490.875V371.875C371.875 363.66 365.215 357 357 357Z" fill="white"/>
<path d="M270.542 83.3263L175.505 154.942C168.944 159.886 167.633 169.213 172.577 175.774L244.193 270.812C249.137 277.373 258.464 278.683 265.025 273.739L360.062 202.123C366.623 197.179 367.934 187.853 362.99 181.292L291.374 86.254C286.43 79.693 277.103 78.3822 270.542 83.3263Z" fill="white"/>
</g>
<defs>
<clipPath id="clip0_0_1">
<rect width="595" height="595" fill="white"/>
</clipPath>
</defs>
</svg>
